# xmcd CD database file
#
# Track frame offsets:
#	150
#	22517
#	43977
#	66332
#
# Disc length: 1166 seconds
#
# Revision: 3
# Processed by: cddbd v1.5.1PL0 Copyright (c) Steve Scherf et al.
# Submitted via: CDex 1.51
#
DISCID=2c048c04
DTITLE=大黒　摩季 - 太陽の国へ行こうよ　すぐに〜空飛ぶ夢に乗って〜 (EP)
DYEAR=1999
DGENRE=Pop
TTITLE0=太陽の国へ行こうよ　すぐに〜空飛ぶ夢に乗って〜
TTITLE1=Just Start Again
TTITLE2=太陽の国へ行こうよ　すぐに〜空飛ぶ夢に乗って〜（オリジナル・カラオケ）
TTITLE3=Just Start Again（オリジナル・カラオケ）
EXTD=YEAR: 1999
EXTT0=
EXTT1=
EXTT2=
EXTT3=
PLAYORDER=
